<svg width="48" height="48" viewBox="0 0 48 48" fill="none" xmlns="http://www.w3.org/2000/svg">
<path d="M36.34 8.88H33.66C31.64 8.88 30 10.52 30 12.54V13.44L11 17.52V16.5C11 15.68 10.32 15 9.5 15C8.68 15 8 15.68 8 16.5V30.5C8 31.32 8.68 32 9.5 32C10.32 32 11 31.32 11 30.5V29.24L30 33.32V34.22C30 36.24 31.64 37.88 33.66 37.88H36.34C38.36 37.88 40 36.24 40 34.22V12.54C40 10.52 38.36 8.88 36.34 8.88ZM11 26.16V20.58L30 16.5V30.24L11 26.16ZM37 34.22C37 34.58 36.7 34.88 36.34 34.88H33.66C33.3 34.88 33 34.58 33 34.22V12.54C33 12.18 33.3 11.88 33.66 11.88H36.34C36.7 11.88 37 12.18 37 12.54V34.22ZM25.94 35.26C25.5797 36.3915 24.8673 37.3782 23.9067 38.0762C22.946 38.7742 21.7874 39.1469 20.6 39.14C17.52 39.14 15 36.66 15 33.64C15 33.42 15 33.18 15.04 32.96C15.14 32.14 15.9 31.56 16.72 31.66C17.54 31.76 18.12 32.5 18.02 33.32V33.62C18.02 35 19.18 36.12 20.62 36.12C21.76 36.12 22.76 35.4 23.1 34.34C23.34 33.54 24.2 33.1 24.98 33.36C25.78 33.6 26.2 34.46 25.96 35.24L25.94 35.26Z" fill="#595122"/>
</svg>
